<svg xmlns="http://www.w3.org/2000/svg" width="30" height="30.044" viewBox="0 0 30 30.044">
  <path id="icons8_dog_training_2" d="M8.531,2A3.266,3.266,0,1,0,11.8,5.266,3.269,3.269,0,0,0,8.531,2ZM5.592,9.184A3.6,3.6,0,0,0,2,12.777v8.817a1.306,1.306,0,0,0,2.613,0v-7.48a.327.327,0,1,1,.653,0V30.281a1.556,1.556,0,0,0,1.568,1.763,1.693,1.693,0,0,0,1.7-1.763V22.7a.327.327,0,1,1,.653,0v7.767s.008.006.01.01a1.679,1.679,0,0,0,1.688,1.563,1.556,1.556,0,0,0,1.568-1.763V12.45h6.858a1.633,1.633,0,1,0,0-3.266H10.829l-2.3,4.572L6.256,9.184Zm16.159,4.754-.307,2.091a2.25,2.25,0,0,0-1.79,1.939c-.314.2-.823.549-1.691,1.124l-.241.163-.04.293a3.687,3.687,0,0,0-.006.739,1.3,1.3,0,0,0,1.306,1.306h1.392a43.857,43.857,0,0,0,1.6,7.2c.091-.007.183-.013.274-.013h.262a3.052,3.052,0,0,1,3-1.959h.653v1.306h-.653a1.919,1.919,0,0,0-1.959,1.959H22.247c-1,0-1.248.895-1.3,1.47l.046.49h7.818a1.74,1.74,0,0,0,1.351-.575,2.229,2.229,0,0,0,.5-1.023,4.481,4.481,0,0,0,1.19-1.883c.394-1.282.092-3.113-2-4.858l-.837,1c1.825,1.521,1.849,2.629,1.591,3.47-.013.044-.032.083-.047.125a8.316,8.316,0,0,0-1.249-2.215c-.2-.287-.412-.6-.634-.935-1.019-1.548-1.907-3.167-1.907-3.167a44.9,44.9,0,0,1-1.926-5.114c-.222-.927-1.757-2.031-2.227-2.351Z" transform="translate(-2 -2)" fill="#fff"/>
</svg>
