<svg xmlns="http://www.w3.org/2000/svg" width="26" height="30" viewBox="0 0 26 30">
  <path id="Icon_map-veterinary-care" data-name="Icon map-veterinary-care" d="M12.37,12.412a3.6,3.6,0,0,0,2.809-3.3c.174-1.681.565-8.438-1.963-8.008-6.557,1.116-6.1,12.2-.846,11.3Zm8.628,0c5.25.893,5.71-10.187-.847-11.3-2.527-.43-2.137,6.326-1.964,8.008A3.6,3.6,0,0,0,21,12.412ZM9.677,17.632a3.437,3.437,0,0,0-.816-2.256C8.031,14.29,5.4,12.093,4.75,12.656c-1.35,1.178-1.307,4.077-.493,6.183a2.839,2.839,0,0,0,2.607,1.995A3.026,3.026,0,0,0,9.677,17.632Zm18.939-4.977c-.645-.563-3.28,1.634-4.109,2.721a3.438,3.438,0,0,0-.817,2.256,3.027,3.027,0,0,0,2.813,3.2,2.84,2.84,0,0,0,2.608-1.995C29.922,16.732,29.967,13.834,28.616,12.656Zm-5.288,9.963c-2.389-1.2-2.315-3.5-2.859-5.6a3.915,3.915,0,0,0-7.541-.1c-.582,2.01-.231,4.35-2.836,5.685-2.116.692-2.972,1.7-2.972,4.089a4.521,4.521,0,0,0,3.8,4.274,8.607,8.607,0,0,0,5.764-.974,8.614,8.614,0,0,0,5.766.974,4.515,4.515,0,0,0,3.8-4.274c0-2.44-.8-3.349-2.923-4.073Zm-2.819,2.918H18.031l0,2.609h-2.7l0-2.609H12.708V22.928h2.629l0-2.609h2.7l0,2.609h2.477Z" transform="translate(-3.683 -1.089)" fill="#fff"/>
</svg>
