<svg xmlns="http://www.w3.org/2000/svg" width="106" height="33" viewBox="0 0 106 33">
  <g id="Groupe_980" data-name="Groupe 980" transform="translate(-140 0)">
    <text id="Title_TAG:H6_" data-name="Title [TAG:H6]" transform="translate(173 27)" fill="#262626" font-size="18" font-family="Poppins-SemiBold, Poppins" font-weight="600" letter-spacing="-0.005em"><tspan x="0" y="0">Pet</tspan><tspan y="0" fill="#4589ef">Care</tspan></text>
    <path id="icons8_pet_commands_summon" d="M15.048,0a4.49,4.49,0,0,0-3.473,2.184,5.281,5.281,0,0,0-.961,2.9V5.1a2.614,2.614,0,0,0,1.023,2.229,2.262,2.262,0,0,0,1.342.392,4.535,4.535,0,0,0,3.428-2.182,5.292,5.292,0,0,0,.959-2.9v0A2.615,2.615,0,0,0,16.342.394,2.256,2.256,0,0,0,15.048,0ZM6.639.965C5.5.967,4.392,2.126,4,3.722A4.953,4.953,0,0,0,3.859,4.9v.017A2.64,2.64,0,0,0,5.452,7.659a1.712,1.712,0,0,0,.454.06c1.136,0,2.244-1.164,2.633-2.757a4.916,4.916,0,0,0,.143-1.174v0a2.641,2.641,0,0,0-1.59-2.761A1.7,1.7,0,0,0,6.639.965ZM20.522,5.789a5.285,5.285,0,0,0-2.9.961,4.537,4.537,0,0,0-2.184,3.428,2.27,2.27,0,0,0,.394,1.342,2.616,2.616,0,0,0,2.229,1.023h.013a5.274,5.274,0,0,0,2.9-.963,4.49,4.49,0,0,0,2.184-3.471,2.262,2.262,0,0,0-.394-1.3,2.617,2.617,0,0,0-2.237-1.023ZM7.96,10.614c-3.213,0-5.612.827-7.131,2.457a3.137,3.137,0,0,0,.09,4.344,4.224,4.224,0,0,0,1.905,1.1A2.568,2.568,0,0,1,4,19.156a2.582,2.582,0,0,1,.637,1.176,4.219,4.219,0,0,0,1.1,1.905,3.118,3.118,0,0,0,2.218.92h0a3.1,3.1,0,0,0,2.116-.825c.252-.233,2.463-2.419,2.463-7.135a4.586,4.586,0,0,0-3.957-4.542A4.7,4.7,0,0,0,7.96,10.614Zm11.409,3.858a4.913,4.913,0,0,0-1.174.145c-1.593.39-2.752,1.5-2.757,2.633a1.725,1.725,0,0,0,.06.456A2.64,2.64,0,0,0,18.244,19.3h.017a4.954,4.954,0,0,0,1.174-.143c1.6-.39,2.755-1.5,2.757-2.636a1.722,1.722,0,0,0-.06-.454,2.643,2.643,0,0,0-2.761-1.592Z" transform="translate(140 16.374) rotate(-45)" fill="#4589ef"/>
  </g>
</svg>
