<svg xmlns="http://www.w3.org/2000/svg" width="30" height="30.015" viewBox="0 0 30 30.015">
  <path id="sun" d="M15.983.986a1.072,1.072,0,0,0-1.055,1.086V5.287a1.071,1.071,0,1,0,2.143,0V2.072A1.072,1.072,0,0,0,15.983.986ZM6.139,5.071a1.072,1.072,0,0,0-.745,1.839L7.667,9.183A1.071,1.071,0,1,0,9.182,7.668L6.91,5.4a1.072,1.072,0,0,0-.77-.324Zm19.687,0a1.072,1.072,0,0,0-.737.324L22.818,7.668a1.071,1.071,0,1,0,1.515,1.515l2.272-2.273a1.072,1.072,0,0,0-.778-1.839ZM16,8.5A7.5,7.5,0,1,0,23.5,16,7.5,7.5,0,0,0,16,8.5ZM2.071,14.929a1.071,1.071,0,1,0,0,2.143H5.286a1.071,1.071,0,1,0,0-2.143Zm24.643,0a1.071,1.071,0,1,0,0,2.143h3.214a1.071,1.071,0,1,0,0-2.143ZM8.4,22.494a1.072,1.072,0,0,0-.737.324L5.395,25.091A1.071,1.071,0,1,0,6.91,26.606l2.272-2.273A1.072,1.072,0,0,0,8.4,22.494Zm15.161,0a1.072,1.072,0,0,0-.747,1.839l2.273,2.273a1.072,1.072,0,1,0,1.515-1.515l-2.273-2.273A1.072,1.072,0,0,0,23.565,22.494Zm-7.581,3.135a1.072,1.072,0,0,0-1.055,1.086v3.214a1.071,1.071,0,1,0,2.143,0V26.715a1.072,1.072,0,0,0-1.088-1.086Z" transform="translate(-1 -0.986)" fill="#fff"/>
</svg>
