<?xml version="1.0" encoding="iso-8859-1"?>
<!-- Generator: Adobe Illustrator 19.0.0, SVG Export Plug-In . SVG Version: 6.00 Build 0)  -->
<svg version="1.1" id="Layer_1" xmlns="http://www.w3.org/2000/svg" xmlns:xlink="http://www.w3.org/1999/xlink" x="0px" y="0px"
	 viewBox="0 0 512.001 512.001" style="enable-background:new 0 0 512.001 512.001;" xml:space="preserve" width="35" height="35.015">
<g>
	<g>
		<path d="M159.411,0.166c-24.537-2.109-46.137,16.071-48.247,40.607c-2.123,24.694,16.268,46.154,40.607,48.247
			c24.44,2.102,46.13-15.991,48.247-40.607C202.128,23.877,183.947,2.276,159.411,0.166z"/>
	</g>
</g>
<g>
	<g>
		<path d="M508.668,371.024c-0.39-2.25-1.73-4.226-3.678-5.418l-10.707-6.556c-2.36-9.44-9.785-16.777-19.251-19.026l-0.252-0.06
			c0.559,4.259,0.801,9.454,0.694,13.579c-0.13,5.054-0.524,20.433-11.868,24.441c-11.054,3.904-21.158-6.646-28.209-16.14
			c-2.022,2.708-3.955,5.306-5.578,7.493c-57.498-15.826-97.56-40.754-121.459-59.38c-15.51-12.09-26.303-23.073-32.778-30.367
			c0.331-0.346,0.671-0.681,0.981-1.055c7.112-8.572,5.929-21.286-2.642-28.398l-66.165-54.902l-13.815-21.683l2.924-34.015
			l0.021-0.249c1.43-16.627-10.914-31.172-27.431-32.592l-53.52-4.601c-13.524-1.162-25.931,6.859-30.676,19.153l27.112-3.845
			L33.31,148.207c-6.051,2.358-10.91,7.677-12.403,14.514L3.686,241.578c-2.372,10.856,4.477,21.656,15.426,24.048
			c0.001,0,0.002,0,0.003,0.001c10.887,2.376,21.666-4.539,24.044-15.428l14.91-68.274l71.595-27.893L78.02,191.425
			c-1.373,15.965-4.978,57.91-7.025,81.718c-0.273,3.173-0.167,6.447,0.321,9.594c1.484,9.562,5.192,33.209,14.739,94.022
			L47.42,479.195c-4.725,12.528,1.6,26.514,14.128,31.239c12.529,4.725,26.514-1.601,31.239-14.128l40.895-108.425
			c1.481-3.925,1.917-8.17,1.266-12.315c-1.247-7.947-12.154-77.409-13.763-87.663l12.787,1.099l38.683,85.595l26.948,118.528
			c2.968,13.054,15.956,21.233,29.014,18.265c13.056-2.969,21.233-15.958,18.265-29.014l-27.49-120.91
			c-0.361-1.584-0.879-3.128-1.548-4.608l-33.323-73.736c0.883-10.279,3.484-40.528,4.393-51.104l59.25,49.164
			c2.913,2.417,6.305,3.865,9.791,4.401c5.942,7.291,18.617,21.426,39.099,37.481c21.904,17.171,56.65,39.364,105.064,55.841
			l-64.347,9.519c-5.174,0.766-10.032,2.744-14.224,5.7c-11.062-2.879-21.076-9.313-29.303-20.168
			c-4.48-5.787-8.659-13.126-11.371-20.618c-0.63-1.73-2.424-2.819-4.304-2.501c-2.119,0.358-3.548,2.366-3.19,4.486
			c1.458,8.647,4.582,17.599,8.487,25.13c5.803,11.43,14.205,21.132,25.586,28.269c-6.769,8.311-8.805,17.693-9.642,28.002
			c-0.805,9.903,0.171,21.412,1.734,31.133l-13.11,28.994c-2.441,5.398-0.044,11.753,5.355,14.194
			c5.401,2.442,11.754,0.041,14.194-5.355l11.599-25.652c11.439-6.334,25.172-21.273,29.997-29.989
			c2.932-5.296,5.883-14.89,5.883-23.135c0-3.182,2.58-5.762,5.762-5.762c3.182,0,5.762,2.58,5.762,5.762
			c0,7.18-1.359,13.987-3.78,20.076c22.281,2.873,46.128,5.786,60.46,7.415l14.138,49.795c1.616,5.692,7.542,9.009,13.249,7.39
			c5.699-1.618,9.008-7.55,7.39-13.249l-15.022-52.914c6.548-12.484,13.894-33.18,18.391-46.651
			c1.131-3.386,3.612-6.152,6.854-7.646c3.242-1.494,6.963-1.589,10.271-0.244c7.682,3.122,16.502,0.842,21.709-5.612l6.381-7.909
			C508.458,375.584,509.057,373.275,508.668,371.024z"/>
	</g>
</g>
<g>
	<g>
		<path d="M463.767,337.494c-1.29-3.651-8.476-5.663-15.576-3.155c-7.102,2.508-11.429,8.588-10.14,12.239
			c1.289,3.651,15,24.136,22.102,21.627C467.254,365.697,465.056,341.144,463.767,337.494z"/>
	</g>
</g>
<g>
</g>
<g>
</g>
<g>
</g>
<g>
</g>
<g>
</g>
<g>
</g>
<g>
</g>
<g>
</g>
<g>
</g>
<g>
</g>
<g>
</g>
<g>
</g>
<g>
</g>
<g>
</g>
<g>
</g>
</svg>
